<?xml version="1.0" encoding="UTF-8"?>
<svg id="Layer_1" data-name="Layer 1" xmlns="http://www.w3.org/2000/svg" viewBox="0 0 1708 309.36">
  <defs>
    <style>
      .cls-1 {
        fill: #fff;
      }
    </style>
  </defs>
  <path class="cls-1" d="M1174.93,309.36H0V0h1708v214.17c-19.41-32.36-67.58-21.64-67.57,18.39s41.8,45.65,67.57,22.72v54.08h-522.19c2.51-.18,14.08-2.73,17.03-3.63,14.21-4.32,27.1-16.06,19.45-31.55-9.01-18.25-34-10.82-50.36-12.67-2.39-.27-11.72-.99-10.03-5.12,4.43-10.79,18.67-4.97,26.88-5.61,18.19-1.41,34.39-15.4,27.5-34.43l11.66,2.02c4.11-1.31,4.29-7.98,3.6-11.72-2.13-11.46-14.65-1.38-20.73-2.06-2.71-.3-7.69-5.6-11.88-6.71-36.19-9.57-69.5,18.67-37.06,48.72-19.62,3.84-26,22.57-4.36,29.22-5.81,5.4-16,5.89-14.35,16.32,2.45,15.46,21.02,13.05,31.76,17.22ZM132.72,242.29h33.72c43.27,0,61.44-42.89,100.32-47.36,7.59-.87,17.42-.79,24.91.72,5.24,1.06,37.2,16.11,43.48,19.51,15.85,8.56,14.39,13.58,20.63,29.29,5.37,1.46,9.62-6.85,15.64-8.19,7.67-1.72,17.84,1.47,24.54-1.56,4.15-1.88,7.58-10.46,11.96-14.07,5.57-4.59,17.23-6,18.57-14,.55-3.31-.01-3.79-3.29-3.29-15.65,5.32-44.53,16.52-60.4,12.47-5.41-1.38-43.61-27.05-48.36-31.94-14.77-15.2-8.81-34.76-9.73-53.96,29.01-2.78,46.12-28.64,49.34-55.86.78-6.58-1.36-27.44-.54-28.62,4.49-6.43,20.16,8.14,25.8,11.2,12.79,6.95,36.6,19.23,50.45,21.26,6.45.95.79-5.55,1.15-9.57.58-6.46,6.48-11.53,3.19-18.47-.82-1.74-11.26-10.67-2.16-13.06,8.29-2.18,12.45,11.86,16.28,16.23,7.86,8.96,21.9,15.91,19.59,29.21,17.53-5.09,32.71-5.1,50.66-2.11l5.92-9.75c-6.85-5.81-16.79-2.41-25.09-7.57-8.87-5.52-11.68-21.28-19.5-28.21-11.54-10.23-31.07-11.91-45.8-10.86-9.5.67-21.42,5.83-30.23,4.35-8.49-1.42-19.31-16.23-29.52-20.5-17.07-7.14-39.69-7.25-55.12,3.61-7.69,5.41-16.98,23.67-26.49,23.35-5.26-.18-30.77-21.42-48.09-23.47-52.28-6.2-93.89,17.61-135.57,44.28-29.82,19.08-26.53,26.03-42.78,52.65-13.81,22.62-28.41,35.52-36.42,61.14-2.13,6.82-1.39,15.31-4.23,21.75-5.16,11.68-28.61,22.37-23.35,40.58,4.67,4.84,22.91-17.06,26-18.23,2.58-.98,5.4,1.96,9.98-1,5.46-3.53,6.33-12.35,12.01-16.32,1.87-1.3,31.33-13.3,32.49-12.02,5.17,22.55-12.32,20.03-26.16,31.3-3.1,2.52-13.07,12.09-13.07,15.2,17.68,32.69,27.32,4.13,43.02,1.41,2.1-.36,23.39,2.22,24.54,2.88,10.81,6.2-3.79,45.37,12.05,46.65,5.68.46,9.23-5.85,15.3-6.58s11.65,2.78,14.7,2.31c1.83-.28,2.29-4.84,4.82-6.44,4.34-2.74,23.67-3.99,8.72-11.17-2.15-1.03-40.86-11.11-33.87-17.16ZM559.18,77.88v43.27c-4.48-.22-9.6,1.19-8.7,6.49h32.64c.9-5.3-4.23-6.71-8.7-6.49v-43.27l10.57.3,2.25,7.05,6.75,1.32v-19.47c-14.97,6.28-38.32,7.31-53.25-.06l-5.47,19.51c9.42-3.1,11.63-11.9,23.92-8.64ZM615.74,69.23l-17.39,4.35c-2,5.86,3.96,3.94,5.45,6.35,1.62,2.6,1.93,33.34,1.12,38.03-1.17,6.73-8.03,2.88-6.56,9.66h23.91s-6.66-5.49-6.66-5.49l.06-21.18c.45-1.9,12.14-7.34,13.16-.43.63,4.28.69,15.37.17,19.7-.62,5.17-6.16.92-4.53,7.39h21.74c2.28-5.64-3.86-3.45-4.38-5.72-3.73-16.35,7.69-42.99-26.05-28.89l-.03-23.79ZM685.37,105.99c-8.34-42.28-58.97,1.91-28.11,20.38,13.2,7.9,34.06-3.64,28.11-9.54-12.48,4.18-24.23,6.57-23.93-10.82l23.93-.02ZM654.91,216.33h-33.72c-1.84,0-11.84-5.98-14.12,1.1-2.79,8.68,9.82,6.47,13.26,10.56,4.96,5.9.43,19.74-.66,26.82-66.16,27.27-63.18-104.58-4.9-84.02,14.54,5.13,15.16,20.28,29.25,19.58,3.84-26.39-10.52-31.27-33.61-32.54-85.73-4.71-88.49,103.69-21.83,110.39,17.79,1.79,37.35-.33,54.17-6.21,3.72-2.74,2.07-28.35,3.8-33.45,1.49-4.37,10.94-4.25,8.37-12.23ZM735.42,259.6c.06,2.16-.1,4.34-.01,6.49l87.94.03,1.3-6.51-13.07-2.18v-99.51l-30.41,8.75-.07,6.38,10.89,3.26v81.13c-4.91,2.95-23.93,3.5-23.93-3.25v-96.27l-30.41,8.75-.07,6.38c5.73-.08,9.64-.92,10.91,5.41,2.08,10.44,1.53,63.87.13,75.8-.8,6.83-9.08,3.87-13.2,5.33-.24-8.05-.32-19.31-6.56-6.54l-4.32.05v-44.35c0-12.74-26.51-13.22-35.41-11.41-10.67,2.17-32.81,18.32-22.11,29.71,20.87.41,13.88-24.18,30.47-23.63,7.75.26,8.12,14.18,7.54,20.1-1.1,4.4-35.35,9.73-38.77,24.64-5.14,22.33,14.33,21.34,29.94,16.8,3.45-1,7.63-4.81,10.25-5.05,4.15-.37,9.12,11.65,25.33,4.04,1.35-.63.78-3.34,3.64-4.35ZM1035.16,160.61c-9.13-9.07-29.29,3.54-17.88,16.7,11,12.68,28.41-6.23,17.88-16.7ZM1379.45,190.38c7.92-30.99-23.45-34.3-46.85-32.53-70.02,5.3-69.66,101.69-12.41,109.84,11.91,1.7,48.36,1.11,57.78-5.78,6.88-5.04,2.12-25.52,3.93-33.42l8.09-3.81.37-8.33-45.76-1.14-2.11,7.58,14.92,4.67c6.61,26.82-10.21,40.64-33.87,26.11-35.16-21.59-14.59-104.45,31.34-80.92,10.77,5.52,12.47,19.43,24.58,17.75ZM909.48,307.19h45.69v-6.44c-3.05.61-13.05-3.2-13.05-5.46v-31.37c70.83,26.71,75.1-91.41.01-62.75l-.02-10.81-32.62,10.85,10.9,14.01,1.79,80.8c-5.81,3.39-14.93,2.31-12.69,11.17ZM1035.68,192.54l-32.55,10.94-.1,6.36c4.25.13,11.09-1.47,12.77,3.55-2.43,14.71,9.17,44.93-11.47,46.01l-1.28,6.69h43.52l-.02-6.42-10.86-2.23v-64.9ZM1050.91,266.09h39.16c2.13-8.74-7.4-7.25-8.73-14.04-1.87-9.55-2.13-35.33,6.65-41.02,27.81-18.02,21.86,30.43,21.37,45.03l-10.61,3.55.02,6.48h41.34c1.8-7.04-10.23-7.06-10.97-10.09-3.8-15.55,8.85-49.4-11.35-57.49-12.5-5.01-25.14-.52-36.42,4.84-1.5-1.72,3.2-12.32-3.33-10.89l-27.13,14.16c-2.2,8.81,8.04,3.35,10.45,11.23l-.85,39.84-9.6,1.98v6.43ZM863.39,195.2c-47.04,3.35-45.19,67.39-4.85,72.85,61.81,8.37,61.68-76.9,4.85-72.85ZM1433.45,195.2c-46.45,3.3-47.2,68.52-2.88,73.05,59.88,6.11,58.31-76.99,2.88-73.05ZM1518.23,195.21c-44.56,4.82-45.18,67.1-2.6,72.85,62.4,8.42,59.8-79.04,2.6-72.85ZM1622.62,199.56c-17.44-5.52-48.62-7.43-49.68,17.9s23.14,20.06,35.63,27.41c14.16,8.32-6.59,23.03-20.23,9.32-5.75-5.78-4.34-14.67-15.23-11.91l3.56,21.84c19.04,8.03,55.18,7.23,53.13-20.72-1.64-22.42-27.13-17.98-37.83-24.74-11.06-7,3.84-23.26,18.16-9.95,5.73,5.32,4.07,14.91,15.18,11.96l-2.69-21.11Z"/>
  <path d="M1174.93,309.36c-10.75-4.17-29.32-1.76-31.76-17.22-1.65-10.43,8.53-10.92,14.35-16.32-21.64-6.65-15.26-25.38,4.36-29.22-32.44-30.06.87-58.29,37.06-48.72,4.19,1.11,9.17,6.41,11.88,6.71,6.08.68,18.6-9.4,20.73,2.06.7,3.75.52,10.42-3.6,11.72l-11.66-2.02c6.88,19.03-9.32,33.02-27.5,34.43-8.22.64-22.46-5.18-26.88,5.61-1.7,4.13,7.63,4.85,10.03,5.12,16.36,1.85,41.35-5.57,50.36,12.67,7.65,15.49-5.24,27.22-19.45,31.55-2.95.9-14.51,3.45-17.03,3.63h-10.88ZM1175.49,239.55c19.1,17.07,30.81-33.77,8.89-35.73-14.87-1.33-17.95,27.63-8.89,35.73ZM1176.59,279.65c-8.76,1.33-22.11,6.52-12.61,15.72,9.47,9.18,38.01,7.13,45.54-4.81,3.2-12.28-25.12-12.1-32.93-10.92Z"/>
  <path d="M1708,214.17v12.98l-47.9-1.05c2.98,13.36,7.68,28.25,24.22,28,10.19-.15,14.76-7.85,23.67-5.32v6.49c-25.77,22.94-67.56,17.11-67.57-22.72s48.15-50.74,67.57-18.39ZM1688.41,218.48c.02-18.13-22.7-20.64-26.14-3.25-.86,4.33.62,2.89,3.27,3.27,6.98.99,15.64-.7,22.88-.02Z"/>
  <path class="cls-1" d="M1708,227.15v21.63c-8.91-2.53-13.49,5.16-23.67,5.32-16.55.25-21.24-14.64-24.22-28l47.9,1.05Z"/>
  <path d="M132.72,242.29c-6.99,6.05,31.72,16.12,33.87,17.16,14.95,7.18-4.38,8.43-8.72,11.17-2.53,1.6-2.99,6.16-4.82,6.44-3.05.47-8.87-3.01-14.7-2.31s-9.62,7.04-15.3,6.58c-15.84-1.28-1.24-40.45-12.05-46.65-1.15-.66-22.44-3.25-24.54-2.88-15.71,2.73-25.34,31.28-43.02-1.41,0-3.11,9.97-12.68,13.07-15.2,13.84-11.26,31.33-8.75,26.16-31.3-1.16-1.28-30.63,10.72-32.49,12.02-5.68,3.97-6.56,12.79-12.01,16.32-4.58,2.96-7.39.02-9.98,1-3.09,1.17-21.33,23.07-26,18.23-5.27-18.21,18.18-28.9,23.35-40.58,2.85-6.45,2.1-14.93,4.23-21.75,8.01-25.62,22.6-38.52,36.42-61.14,16.25-26.62,12.96-33.57,42.78-52.65C150.64,28.67,192.26,4.86,244.54,11.06c17.32,2.05,42.83,23.29,48.09,23.47,9.51.32,18.8-17.94,26.49-23.35,15.43-10.85,38.05-10.74,55.12-3.61,10.22,4.27,21.04,19.08,29.52,20.5,8.81,1.48,20.74-3.68,30.23-4.35,14.74-1.04,34.26.63,45.8,10.86,7.82,6.93,10.62,22.69,19.5,28.21,8.31,5.16,18.24,1.76,25.09,7.57l-5.92,9.75c-17.95-3-33.13-2.98-50.66,2.11,2.3-13.31-11.73-20.25-19.59-29.21-3.83-4.37-7.98-18.4-16.28-16.23-9.1,2.39,1.34,11.32,2.16,13.06,3.28,6.95-2.61,12.01-3.19,18.47-.36,4.01,5.3,10.51-1.15,9.57-13.85-2.03-37.66-14.31-50.45-21.26-5.64-3.07-21.31-17.63-25.8-11.2-.82,1.18,1.32,22.04.54,28.62-3.22,27.22-20.33,53.08-49.34,55.86.91,19.2-5.04,38.76,9.73,53.96,4.76,4.89,42.95,30.57,48.36,31.94,15.86,4.04,44.74-7.15,60.4-12.47,3.28-.49,3.85-.01,3.29,3.29-1.34,8-13,9.41-18.57,14-4.38,3.61-7.81,12.19-11.96,14.07-6.7,3.03-16.86-.15-24.54,1.56-6.02,1.35-10.27,9.65-15.64,8.19-6.24-15.71-4.78-20.73-20.63-29.29-6.28-3.39-38.24-18.44-43.48-19.51-7.49-1.52-17.32-1.6-24.91-.72-38.88,4.47-57.05,47.36-100.32,47.36h-33.72Z"/>
  <path d="M654.91,216.33c2.57,7.99-6.88,7.87-8.37,12.23-1.74,5.1-.08,30.7-3.8,33.45-16.82,5.88-36.38,8-54.17,6.21-66.66-6.7-63.89-115.1,21.83-110.39,23.09,1.27,37.45,6.15,33.61,32.54-14.1.7-14.71-14.45-29.25-19.58-58.28-20.56-61.26,111.29,4.9,84.02,1.09-7.08,5.62-20.92.66-26.82-3.44-4.1-16.05-1.88-13.26-10.56,2.28-7.08,12.28-1.1,14.12-1.1h33.72Z"/>
  <path d="M1379.45,190.38c-12.1,1.69-13.8-12.23-24.58-17.75-45.93-23.53-66.51,59.33-31.34,80.92,23.66,14.53,40.48.71,33.87-26.11l-14.92-4.67,2.11-7.58,45.76,1.14-.37,8.33-8.09,3.81c-1.81,7.9,2.96,28.38-3.93,33.42-9.42,6.9-45.87,7.48-57.78,5.78-57.26-8.15-57.61-104.54,12.41-109.84,23.4-1.77,54.77,1.54,46.85,32.53Z"/>
  <path d="M735.42,259.6c4.12-1.46,12.4,1.5,13.2-5.33,1.4-11.93,1.95-65.36-.13-75.8-1.26-6.33-5.18-5.49-10.91-5.41l.07-6.38,30.41-8.75v96.27c0,6.74,19.02,6.2,23.93,3.25v-81.13l-10.89-3.26.07-6.38,30.41-8.75v99.51l13.07,2.18-1.3,6.51-87.94-.03c-.08-2.15.08-4.33.01-6.49-2.85,1.01-2.29,3.72-3.64,4.35-16.21,7.61-21.18-4.41-25.33-4.04-2.62.23-6.8,4.04-10.25,5.05-15.6,4.54-35.07,5.53-29.94-16.8,3.43-14.91,37.67-20.23,38.77-24.64.58-5.92.21-19.84-7.54-20.1-16.6-.55-9.61,24.04-30.47,23.63-10.71-11.39,11.44-27.54,22.11-29.71,8.89-1.81,35.41-1.33,35.41,11.41v44.35l4.32-.05c6.24-12.77,6.33-1.5,6.56,6.54ZM687.82,255c6.59,10.4,23.4-10.86,17.12-21.36-7.38,2.08-22.83,12.35-17.12,21.36Z"/>
  <path d="M909.48,307.19c-2.23-8.86,6.88-7.78,12.69-11.17l-1.79-80.8-10.9-14.01,32.62-10.85.02,10.81c75.09-28.67,70.81,89.45-.01,62.75v31.37c0,2.27,10,6.07,13.04,5.46v6.44s-45.68,0-45.68,0ZM942.12,212.01v40.02c0,6.92,23.72,12.51,30.92-1.69,10.74-21.17-6.69-47.23-30.92-38.33Z"/>
  <path d="M1050.91,266.09v-6.43s9.61-1.98,9.61-1.98l.85-39.84c-2.41-7.88-12.65-2.42-10.45-11.23l27.13-14.16c6.53-1.43,1.83,9.17,3.33,10.89,11.27-5.36,23.91-9.85,36.42-4.84,20.2,8.09,7.55,41.94,11.35,57.49.74,3.03,12.77,3.05,10.97,10.09h-41.34l-.02-6.48,10.61-3.55c.49-14.59,6.44-63.05-21.37-45.03-8.78,5.69-8.52,31.47-6.65,41.02,1.33,6.79,10.85,5.3,8.73,14.04h-39.16Z"/>
  <path d="M1518.23,195.21c57.2-6.19,59.8,81.27-2.6,72.85-42.57-5.74-41.96-68.03,2.6-72.85ZM1533.38,256.87c8.73-8.11,9.84-45.71-4.34-51.87-26.79-11.64-25.51,43.04-16.83,51.33,4.43,4.23,16.74,4.67,21.17.55Z"/>
  <path d="M1433.45,195.2c55.44-3.94,57,79.16-2.88,73.05-44.32-4.52-43.57-69.75,2.88-73.05ZM1433.27,203.74c-17.48,3.59-16.25,44.83-6.12,52.77,29.78,23.35,37.76-59.27,6.12-52.77Z"/>
  <path d="M863.39,195.2c56.82-4.04,56.96,81.22-4.85,72.85-40.34-5.46-42.19-69.5,4.85-72.85ZM863.21,203.74c-17.52,3.6-16.07,46.76-5.02,53.84,30.59,19.61,35.78-60.16,5.02-53.84Z"/>
  <path d="M1622.62,199.56l2.69,21.11c-11.11,2.96-9.45-6.63-15.18-11.96-14.32-13.31-29.22,2.95-18.16,9.95,10.69,6.76,36.18,2.32,37.83,24.74,2.05,27.94-34.09,28.75-53.13,20.72l-3.56-21.84c10.89-2.76,9.48,6.14,15.23,11.91,13.64,13.7,34.39-1,20.23-9.32-12.49-7.35-36.65-2.95-35.63-27.41s32.24-23.42,49.68-17.9Z"/>
  <path d="M1035.68,192.54v64.9l10.86,2.23.02,6.42h-43.52l1.28-6.69c20.64-1.08,9.04-31.3,11.47-46.01-1.68-5.02-8.52-3.42-12.77-3.55l.1-6.36,32.55-10.94Z"/>
  <path d="M559.18,77.88c-12.29-3.26-14.5,5.54-23.92,8.64l5.47-19.51c14.94,7.36,38.28,6.34,53.25.06v19.47s-6.75-1.32-6.75-1.32l-2.25-7.05-10.57-.3v43.27c4.48-.22,9.6,1.19,8.7,6.49h-32.64c-.9-5.3,4.23-6.71,8.7-6.49v-43.27Z"/>
  <path d="M615.74,69.23l.03,23.79c33.74-14.1,22.32,12.53,26.05,28.89.52,2.27,6.66.07,4.38,5.72h-21.74c-1.63-6.47,3.91-2.23,4.53-7.39.52-4.33.45-15.42-.17-19.7-1.02-6.91-12.71-1.48-13.16.43l-.06,21.18,6.66,5.49h-23.91c-1.47-6.78,5.39-2.93,6.56-9.66.82-4.69.5-35.43-1.12-38.03-1.5-2.41-7.46-.49-5.45-6.35l17.39-4.35Z"/>
  <path d="M685.37,105.99l-23.93.02c-.3,17.38,11.45,15,23.93,10.82,5.95,5.9-14.91,17.45-28.11,9.54-30.86-18.47,19.77-62.66,28.11-20.38Z"/>
  <path d="M1035.16,160.61c10.53,10.46-6.88,29.38-17.88,16.7-11.41-13.16,8.75-25.77,17.88-16.7Z"/>
  <path class="cls-1" d="M1176.59,279.65c7.82-1.19,36.13-1.37,32.93,10.92-7.54,11.94-36.07,13.99-45.54,4.81-9.5-9.21,3.85-14.39,12.61-15.72Z"/>
  <path class="cls-1" d="M1175.49,239.55c-9.06-8.1-5.98-37.06,8.89-35.73,21.92,1.96,10.21,52.8-8.89,35.73Z"/>
  <path class="cls-1" d="M1688.41,218.48c-7.23-.68-15.9,1.01-22.88.02-2.65-.38-4.12,1.06-3.27-3.27,3.45-17.39,26.17-14.88,26.14,3.25Z"/>
  <path class="cls-1" d="M942.12,212.01c24.23-8.9,41.66,17.16,30.92,38.33-7.2,14.2-30.92,8.61-30.92,1.69v-40.02Z"/>
  <path class="cls-1" d="M1533.38,256.87c-4.43,4.12-16.74,3.68-21.17-.55-8.68-8.29-9.97-62.97,16.83-51.33,14.18,6.16,13.07,43.77,4.34,51.87Z"/>
  <path class="cls-1" d="M1433.27,203.74c31.64-6.5,23.66,76.12-6.12,52.77-10.13-7.94-11.36-49.19,6.12-52.77Z"/>
  <path class="cls-1" d="M863.21,203.74c30.76-6.32,25.57,73.45-5.02,53.84-11.05-7.08-12.51-50.24,5.02-53.84Z"/>
  <path class="cls-1" d="M687.82,255c-5.71-9.02,9.74-19.28,17.12-21.36,6.28,10.51-10.53,31.76-17.12,21.36Z"/>
</svg>