<?xml version="1.0" encoding="UTF-8"?>
<svg id="Layer_1" xmlns="http://www.w3.org/2000/svg" version="1.1" viewBox="0 0 1202.68 543.3">
  <!-- Generator: Adobe Illustrator 29.7.1, SVG Export Plug-In . SVG Version: 2.1.1 Build 8)  -->
  <defs>
    <style>
      .st0, .st1, .st2, .st3 {
        fill: #fff;
      }

      .st1 {
        font-size: 130px;
      }

      .st1, .st4, .st2, .st3 {
        isolation: isolate;
      }

      .st1, .st2, .st3 {
        font-family: Arial-BoldMT, Arial;
        font-weight: 700;
      }

      .st2 {
        letter-spacing: -.06em;
      }

      .st2, .st3 {
        font-size: 440px;
      }
    </style>
  </defs>
  <g>
    <path class="st0" d="M299.63,194.64c2.84-10.42,4.37-21.38,4.37-32.71,0-68.48-55.52-124-124-124s-124,55.52-124,124c0,13.08,2.03,25.68,5.78,37.52C25.9,211.29,0,245.09,0,284.93c0,49.71,40.29,90,90,90,7.23,0,14.26-.86,20.99-2.47l-43.85-44.78c-2.9-2.96-2.85-7.71.11-10.61s7.71-2.85,10.61.11l48.89,49.93c16.47-7.38,30.31-19.56,39.75-34.76v-124.92c0-8.28,6.72-15,15-15s15,6.72,15,15v130.05c2.25,3.26,4.7,6.36,7.34,9.3l78.01-78.01c3.12-3.12,8.19-3.12,11.31,0s3.12,8.19,0,11.31l-77.67,77.67c15.94,12.63,36.09,20.18,58.01,20.18,51.64,0,93.5-41.86,93.5-93.5,0-42.57-28.45-78.49-67.37-89.79h0Z"/>
    <path class="st0" d="M185.84,376.09c-3.12-3.12-3.12-8.19,0-11.31l10.66-10.66v-16.64c-10.14-14.69-16.18-32.42-16.48-51.55h-.03c-.19,17.02-5.1,32.91-13.49,46.42v75.36l5.36,5.47c2.9,2.96,2.85,7.71-.11,10.61-1.46,1.43-3.35,2.14-5.25,2.14h0v70.5c0,8.28,6.72,15,15,15s15-6.72,15-15v-119.76c-1.46,1.17-3.23,1.76-5,1.76-2.05,0-4.09-.78-5.66-2.34h0Z"/>
    <path class="st0" d="M126.75,367.11c-5.02,2.25-10.29,4.05-15.75,5.35l50.15,51.22c1.47,1.5,3.41,2.25,5.36,2.25v-18.22l-39.75-40.6h0Z"/>
    <path class="st0" d="M203.84,346.78l-7.34,7.34v22.56c.23-.18.45-.38.66-.59l18.33-18.33c-4.19-3.32-8.09-6.99-11.65-10.97h0Z"/>
  </g>
  <g class="st4">
    <text class="st2" transform="translate(317.38 377.65) scale(.98 1)"><tspan x="0" y="0">T</tspan></text>
    <text class="st3" transform="translate(556.98 377.61) scale(.98 1)"><tspan x="0" y="0">ree</tspan></text>
  </g>
  <g class="st4">
    <text class="st1" transform="translate(413.9 488.2) scale(.98 1)"><tspan x="0" y="0">Photography</tspan></text>
  </g>
</svg>